<mxfile host="app.diagrams.net" modified="2024-01-31T22:01:03.491Z" agent="Mozilla/5.0 (Windows NT 10.0; Win64; x64) AppleWebKit/537.36 (KHTML, like Gecko) Chrome/120.0.0.0 Safari/537.36" version="23.1.0" etag="fWUUHpVvy745oUXSQW45" type="github">
  <diagram name="Page-1" id="fyCDZIxR_uVGjWRCThof">
    <mxGraphModel>
      <root>
        <mxCell id="0" />
        <mxCell id="1" parent="0" />
      </root>
    </mxGraphModel>
  </diagram>
</mxfile>
